<svg width="25" height="25" viewBox="0 0 25 25" fill="none" xmlns="http://www.w3.org/2000/svg">
<path fill-rule="evenodd" clip-rule="evenodd" d="M5 0C2.23877 0 0 2.23853 0 5V20C0 22.7615 2.23877 25 5 25H20C22.7612 25 25 22.7615 25 20V5C25 2.23853 22.7612 0 20 0H5ZM5.1001 12.027C9.39502 10.0513 12.2588 8.74878 13.6919 8.11938C17.7832 6.32263 18.6333 6.0105 19.1875 6.00012C19.3096 5.99792 19.582 6.02979 19.7588 6.18103C19.9077 6.30872 19.9487 6.4812 19.9683 6.60229C19.978 6.66406 19.9893 6.76599 19.9956 6.87964C20.0015 6.98889 20.0024 7.10901 19.9927 7.21472C19.771 9.67432 18.812 15.6434 18.3237 18.3983C18.1172 19.564 17.7104 19.9548 17.3169 19.993C16.6392 20.0588 16.0908 19.6461 15.4805 19.1866C15.3667 19.1008 15.2505 19.0132 15.1309 18.9269C15.082 18.8918 15.0327 18.8569 14.9829 18.8225C14.5723 18.5385 14.2183 18.2883 13.8862 18.0513C13.6709 17.8975 13.4648 17.7493 13.2583 17.6008C12.7783 17.2555 12.2969 16.9093 11.6948 16.4907C10.4429 15.6196 10.9673 15.0862 11.666 14.3749C11.7793 14.2598 11.897 14.1399 12.0122 14.0133C12.064 13.9568 12.3159 13.7091 12.6719 13.3601C13.8125 12.2406 16.0161 10.0771 16.0718 9.82678C16.0771 9.8031 16.082 9.74255 16.0693 9.68005C16.0596 9.63367 16.04 9.58618 16.0034 9.55176C15.917 9.47095 15.79 9.49854 15.6982 9.52051C15.5684 9.55164 13.4966 10.9973 9.48389 13.8573C8.896 14.2837 8.36328 14.4913 7.88623 14.4805C7.36035 14.4685 6.34814 14.1664 5.59619 13.9082C5.48535 13.8704 5.37793 13.8346 5.27393 13.8C4.50928 13.5461 3.94775 13.3597 4.00391 12.8864C4.02002 12.7488 4.11621 12.6096 4.29297 12.469C4.47607 12.3234 4.74512 12.176 5.1001 12.027Z" />
</svg>
