<svg width="25" height="25" viewBox="0 0 25 25" fill="none" xmlns="http://www.w3.org/2000/svg">
<path fill-rule="evenodd" clip-rule="evenodd" d="M5 0C2.23858 0 0 2.23858 0 5V20C0 22.7614 2.23858 25 5 25H20C22.7614 25 25 22.7614 25 20V5C25 2.23858 22.7614 0 20 0H5ZM19.586 7.8745C20.1184 7.8745 20.2386 8.15148 20.1184 8.53229C19.9307 9.40526 18.3724 11.7212 17.8901 12.4378C17.7986 12.5738 17.7459 12.6522 17.7486 12.6522C17.5597 12.9638 17.491 13.1023 17.7486 13.4485C17.8417 13.5766 18.0393 13.772 18.265 13.9953C18.4971 14.2248 18.7589 14.4838 18.9678 14.7295C19.7234 15.5951 20.3073 16.3221 20.4618 16.8241C20.5992 17.3261 20.3588 17.5857 19.8436 17.5857H18.0749C17.6061 17.5857 17.3645 17.3144 16.8496 16.7361C16.6288 16.4881 16.3578 16.1837 15.997 15.8201C14.9495 14.7987 14.4859 14.6603 14.2283 14.6603C13.8677 14.6603 13.7647 14.7468 13.7647 15.2662V16.876C13.7647 17.3088 13.6273 17.5684 12.494 17.5684C10.6222 17.5684 8.54436 16.4259 7.08469 14.2967C4.88666 11.1808 4.28564 8.82659 4.28564 8.35921C4.28564 8.09956 4.37151 7.85718 4.88666 7.85718H6.6726C7.11906 7.85718 7.29076 8.04759 7.46251 8.54962C8.33829 11.0943 9.79791 13.3273 10.3989 13.3273C10.6222 13.3273 10.7252 13.2235 10.7252 12.6522V10.021C10.6828 9.27312 10.4246 8.94728 10.233 8.70564C10.1143 8.55578 10.0212 8.43831 10.0212 8.27264C10.0212 8.06491 10.1929 7.85718 10.4676 7.85718H13.2495C13.6273 7.85718 13.7647 8.06491 13.7647 8.51497V12.0637C13.7647 12.4445 13.9192 12.583 14.0394 12.583C14.2627 12.583 14.4515 12.4445 14.8637 12.029C16.1344 10.5923 17.0446 8.37653 17.0446 8.37653C17.1648 8.11683 17.3708 7.8745 17.8173 7.8745H19.586Z"/>
</svg>
