<svg width="25" height="25" viewBox="0 0 25 25" fill="none" xmlns="http://www.w3.org/2000/svg">
<path d="M5 0C2.23858 0 0 2.23858 0 5V20C0 22.7614 2.23858 25 5 25H12.8137C12.1456 24.9978 11.4896 24.9452 10.848 24.8444V15.8594H7.5835V12.1429H10.848V9.31034C10.848 6.0885 12.7666 4.30811 15.7046 4.30811C17.1109 4.30811 18.5824 4.55922 18.5824 4.55922V7.72328H16.9602C15.3631 7.72328 14.8659 8.71521 14.8659 9.73221V12.1429H18.4317L17.8617 15.8594H14.8659V24.8444C14.2243 24.9452 13.5683 24.9978 12.9002 25H20C22.7614 25 25 22.7614 25 20V5C25 2.23858 22.7614 0 20 0H5Z"/>
</svg>
