<svg width="783" height="249" viewBox="0 0 783 249" fill="none" xmlns="http://www.w3.org/2000/svg">
<path fill-rule="evenodd" clip-rule="evenodd" d="M471.07 247.241C411.125 242.255 354.276 227.798 320.641 218.902C313.411 216.99 304.702 214.61 294.848 211.916C258.504 201.982 206.579 187.789 155.843 177.137C123.61 170.369 92.2244 165.114 65.9328 163.284C52.7874 162.369 41.1533 162.328 31.456 163.309C21.6253 164.304 14.5168 166.281 9.90759 168.878L0.0922766 151.452C8.13579 146.921 18.3622 144.532 29.4426 143.411C40.6564 142.276 53.5096 142.371 67.3217 143.332C94.9452 145.255 127.355 150.72 159.952 157.563C211.358 168.356 264.143 182.786 300.466 192.716C310.189 195.375 318.733 197.71 325.754 199.567C359.266 208.43 414.663 222.481 472.727 227.309C531.151 232.168 590.283 227.496 632.544 200.782C675.291 173.761 708.06 124.205 730.346 80.1851C741.398 58.3542 749.691 38.2536 755.217 23.6157C757.978 16.3024 760.043 10.3678 761.411 6.2809C762.096 4.23784 762.605 2.6577 762.941 1.59924C763.109 1.07004 763.233 0.671358 763.313 0.410539C763.354 0.280138 763.383 0.184206 763.401 0.123674L763.421 0.0595262L763.424 0.0475938C763.424 0.0485551 763.424 0.0491808 773 2.93018C782.576 5.81117 782.575 5.81384 782.574 5.81708L782.563 5.85527L782.533 5.95354C782.507 6.03694 782.471 6.15601 782.423 6.30981C782.328 6.61742 782.189 7.064 782.006 7.64215C781.64 8.79839 781.096 10.4813 780.376 12.6318C778.936 16.9319 776.787 23.1059 773.928 30.6795C768.214 45.8151 759.641 66.6004 748.19 89.2188C725.469 134.098 690.682 187.693 643.231 217.688C595.294 247.989 530.655 252.196 471.07 247.241Z" fill="url(#paint0_linear_12766_184)"/>
<defs>
<linearGradient id="paint0_linear_12766_184" x1="786.714" y1="108.291" x2="4.49904" y2="108.828" gradientUnits="userSpaceOnUse">
<stop offset="0.0833333" stop-color="#FCDED1" stop-opacity="0"/>
<stop offset="0.322917" stop-color="#FCDED1" stop-opacity="0.6"/>
<stop offset="0.713542" stop-color="#FCDED1" stop-opacity="0"/>
<stop offset="0.911458" stop-color="#FCDED1" stop-opacity="0.2"/>
</linearGradient>
</defs>
</svg>
