<svg width="1262" height="396" viewBox="0 0 1262 396" fill="none" xmlns="http://www.w3.org/2000/svg">
<path fill-rule="evenodd" clip-rule="evenodd" d="M762.274 393.167C665.53 385.128 573.677 361.799 519.102 347.377C507.429 344.292 493.339 340.444 477.38 336.085C418.373 319.968 333.796 296.868 251.206 279.542C198.757 268.539 147.476 259.948 104.37 256.949C82.8179 255.45 63.547 255.367 47.3279 257.007C30.9755 258.66 18.4602 261.997 9.90465 266.812L0.0953241 249.383C12.084 242.636 27.7153 238.888 45.3161 237.108C63.0504 235.315 83.5394 235.452 105.758 236.997C150.194 240.088 202.499 248.888 255.313 259.968C338.571 277.434 424.008 300.772 482.994 316.884C498.822 321.208 512.746 325.011 524.212 328.041C578.663 342.43 669.065 365.352 763.93 373.236C859.155 381.148 956.888 373.713 1027.28 329.254C1098.15 284.489 1151.99 202.831 1188.31 131.147C1206.38 95.4834 1219.93 62.6593 1228.96 38.7559C1233.48 26.81 1236.85 17.1071 1239.1 10.4103C1240.22 7.06223 1241.06 4.46665 1241.61 2.719C1241.89 1.84519 1242.1 1.18347 1242.23 0.74579C1242.3 0.526949 1242.35 0.364107 1242.38 0.258791L1242.42 0.144106L1242.42 0.119478L1242.42 0.115389C1242.42 0.115663 1242.42 0.116853 1252 2.99994C1261.58 5.88303 1261.57 5.88608 1261.57 5.89001L1261.56 5.94409L1261.51 6.0929C1261.47 6.22113 1261.42 6.4071 1261.34 6.64935C1261.19 7.13388 1260.97 7.84351 1260.68 8.76627C1260.09 10.6118 1259.22 13.3102 1258.06 16.7657C1255.75 23.6759 1252.28 33.6183 1247.67 45.8246C1238.45 70.226 1224.62 103.735 1206.15 140.186C1169.39 212.731 1113.54 298.427 1037.96 346.164C961.895 394.206 858.66 401.176 762.274 393.167Z" fill="url(#paint0_linear_12766_177)"/>
<defs>
<linearGradient id="paint0_linear_12766_177" x1="1274.27" y1="173.937" x2="4.18664" y2="174.81" gradientUnits="userSpaceOnUse">
<stop offset="0.0833333" stop-color="#FCDED1" stop-opacity="0"/>
<stop offset="0.322917" stop-color="#FCDED1" stop-opacity="0.6"/>
<stop offset="0.713542" stop-color="#FCDED1" stop-opacity="0"/>
<stop offset="0.911458" stop-color="#FCDED1" stop-opacity="0.2"/>
</linearGradient>
</defs>
</svg>
