<svg width="370" height="122" viewBox="0 0 370 122" fill="none" xmlns="http://www.w3.org/2000/svg">
<path fill-rule="evenodd" clip-rule="evenodd" d="M219.991 121.16C191.778 118.817 165.11 112.033 149.53 107.917C146.132 107.02 142.062 105.909 137.472 104.655C120.668 100.068 96.8964 93.5786 73.6232 88.6982C58.8217 85.5943 44.5888 83.2241 32.7931 82.4039C26.8957 81.9939 21.845 81.9895 17.7693 82.4014C13.5602 82.8267 11.1115 83.6294 9.90341 84.3091L0.0968933 66.8783C4.73746 64.2675 10.3015 63.0542 15.7584 62.5027C21.3486 61.9378 27.617 61.9957 34.1804 62.4521C47.3064 63.3648 62.5626 65.9437 77.7279 69.1239C101.67 74.1447 126.301 80.8708 143.083 85.4538C147.542 86.6714 151.447 87.7377 154.638 88.5805C170.095 92.6638 195.312 99.0415 221.647 101.229C248.341 103.446 274.197 101.164 292.207 89.7932C310.701 78.1169 325.305 56.3234 335.488 36.2321C340.49 26.3652 344.247 17.2694 346.751 10.6453C348 7.33907 348.932 4.66361 349.545 2.83422C349.852 1.91991 350.079 1.21809 350.225 0.755768C350.299 0.524643 350.352 0.353485 350.385 0.245674L350.42 0.131943L350.426 0.112442C350.426 0.114021 350.425 0.11586 360 2.99999C369.575 5.88412 369.575 5.88649 369.574 5.88911L369.572 5.8957L369.566 5.91358L369.55 5.96815C369.536 6.01283 369.517 6.07404 369.493 6.15136C369.446 6.30598 369.377 6.52508 369.288 6.80521C369.111 7.36539 368.851 8.1701 368.508 9.19189C367.823 11.2347 366.807 14.1497 365.459 17.7165C362.767 24.8386 358.728 34.6195 353.327 45.2744C342.707 66.2267 326.084 92.0577 302.884 106.705C279.202 121.657 247.845 123.474 219.991 121.16Z" fill="url(#paint0_linear_12766_180)"/>
<defs>
<linearGradient id="paint0_linear_12766_180" x1="366.339" y1="51.6439" x2="4.76846" y2="51.8926" gradientUnits="userSpaceOnUse">
<stop stop-color="#FCDED1" stop-opacity="0.3"/>
<stop offset="0.217132" stop-color="#FCDED1" stop-opacity="0"/>
<stop offset="0.721638" stop-color="#FCDED1" stop-opacity="0"/>
<stop offset="0.99131" stop-color="#FCDED1" stop-opacity="0.5"/>
</linearGradient>
</defs>
</svg>
