<svg width="24" height="24" viewBox="0 0 24 24" fill="none" xmlns="http://www.w3.org/2000/svg">
<path fill-rule="evenodd" clip-rule="evenodd" d="M5 0C2.23877 0 0 2.23853 0 5V19C0 21.7615 2.23877 24 5 24H19C21.7612 24 24 21.7615 24 19V5C24 2.23853 21.7612 0 19 0H5ZM15.6001 6.59998C15.6001 5.60583 16.4058 4.80005 17.3999 4.80005C18.394 4.80005 19.2002 5.60583 19.2002 6.59998C19.2002 7.59412 18.394 8.40002 17.3999 8.40002C16.4058 8.40002 15.6001 7.59412 15.6001 6.59998ZM17.3999 3C15.4116 3 13.7998 4.61182 13.7998 6.59998C13.7998 6.85864 13.8271 7.11096 13.8789 7.35425L9.31543 9.63611C8.65527 8.87866 7.68359 8.40002 6.6001 8.40002C4.61182 8.40002 3 10.0117 3 12C3 13.9883 4.61182 15.6 6.6001 15.6C7.68359 15.6 8.65527 15.1213 9.31543 14.3639L13.8789 16.6458C13.8564 16.7518 13.8384 16.8597 13.8252 16.9691C13.8086 17.1104 13.7998 17.2542 13.7998 17.4C13.7998 19.3883 15.4116 21 17.3999 21C19.3882 21 21 19.3883 21 17.4C21 15.4117 19.3882 13.8 17.3999 13.8C16.3164 13.8 15.3447 14.2787 14.6846 15.0361L10.1211 12.7542C10.1729 12.511 10.2002 12.2587 10.2002 12C10.2002 11.7413 10.1729 11.489 10.1211 11.2458L14.6846 8.96387C15.3447 9.72131 16.3164 10.2 17.3999 10.2C19.3882 10.2 21 8.58826 21 6.59998C21 4.61182 19.3882 3 17.3999 3ZM4.7998 12C4.7998 11.0059 5.60596 10.2 6.6001 10.2C7.59424 10.2 8.3999 11.0059 8.3999 12C8.3999 12.9941 7.59424 13.8 6.6001 13.8C5.60596 13.8 4.7998 12.9941 4.7998 12ZM15.6001 17.4C15.6001 16.4059 16.4058 15.6 17.3999 15.6C18.394 15.6 19.2002 16.4059 19.2002 17.4C19.2002 18.3942 18.394 19.2 17.3999 19.2C16.4058 19.2 15.6001 18.3942 15.6001 17.4Z" fill="#282A33"/>
</svg>
