<?xml version="1.0" encoding="UTF-8"?>
<!DOCTYPE svg PUBLIC "-//W3C//DTD SVG 1.1//EN" "http://www.w3.org/Graphics/SVG/1.1/DTD/svg11.dtd">
<svg xmlns="http://www.w3.org/2000/svg" xmlns:xlink="http://www.w3.org/1999/xlink">
<symbol id="facebook" viewBox="0 0 25 25">
	<path d="M5 0a5 5 0 0 0-5 5v15a5 5 0 0 0 5 5h7.814a12.93 12.93 0 0 1-1.966-.156V15.86H7.583v-3.716h3.265V9.31c0-3.222 1.919-5.002 4.857-5.002 1.406 0 2.877.251 2.877.251v3.164H16.96c-1.597 0-2.094.992-2.094 2.01v2.41h3.566l-.57 3.716h-2.996v8.985c-.642.101-1.298.154-1.966.156H20a5 5 0 0 0 5-5V5a5 5 0 0 0-5-5H5Z"/>
</symbol>
<symbol id="telegram" viewBox="0 0 25 25">
	<path d="M5 0a5 5 0 0 0-5 5v15a5 5 0 0 0 5 5h15a5 5 0 0 0 5-5V5a5 5 0 0 0-5-5H5Zm.1 12.027c4.295-1.976 7.159-3.278 8.592-3.908C17.783 6.323 18.633 6.011 19.187 6c.123-.002.395.03.572.181.149.128.19.3.21.421a3.002 3.002 0 0 1 .024.613c-.222 2.46-1.181 8.428-1.67 11.183-.206 1.166-.613 1.557-1.006 1.595-.678.066-1.226-.347-1.837-.806a20.678 20.678 0 0 0-.497-.364 89.082 89.082 0 0 1-1.725-1.222c-.48-.345-.961-.692-1.563-1.11-1.252-.871-.728-1.405-.029-2.116.113-.115.231-.235.346-.362.052-.056.304-.304.66-.653 1.14-1.12 3.344-3.283 3.4-3.533a.401.401 0 0 0-.003-.147.241.241 0 0 0-.066-.128c-.086-.081-.213-.053-.305-.031-.13.03-2.201 1.476-6.214 4.336-.588.427-1.12.634-1.598.623-.526-.011-1.538-.314-2.29-.572-.11-.038-.218-.073-.322-.108-.765-.254-1.326-.44-1.27-.914.016-.137.112-.276.289-.417.183-.146.452-.293.807-.442Z" clip-rule="evenodd"/>
</symbol>
<symbol id="vk" viewBox="0 0 25 25">
	<path d="M5 0a5 5 0 0 0-5 5v15a5 5 0 0 0 5 5h15a5 5 0 0 0 5-5V5a5 5 0 0 0-5-5H5Zm14.586 7.875c.532 0 .653.276.532.657-.187.873-1.746 3.19-2.228 3.906a4.55 4.55 0 0 0-.141.214c-.19.312-.258.45 0 .796.093.129.29.324.516.547.232.23.494.489.703.735.755.865 1.34 1.592 1.494 2.094.137.502-.103.762-.618.762h-1.77c-.468 0-.71-.272-1.224-.85-.221-.248-.492-.552-.853-.916-1.047-1.021-1.511-1.16-1.769-1.16-.36 0-.463.087-.463.606v1.61c0 .433-.138.692-1.271.692-1.872 0-3.95-1.142-5.41-3.271-2.197-3.116-2.798-5.47-2.798-5.938 0-.26.086-.502.6-.502h1.787c.446 0 .618.19.79.693.875 2.544 2.335 4.777 2.936 4.777.223 0 .326-.104.326-.675v-2.631c-.042-.748-.3-1.074-.492-1.315-.119-.15-.212-.268-.212-.433 0-.208.172-.416.447-.416h2.781c.378 0 .516.208.516.658v3.549c0 .38.154.519.274.519.224 0 .412-.139.825-.554 1.27-1.437 2.18-3.652 2.18-3.652.12-.26.327-.503.773-.503h1.769Z" clip-rule="evenodd"/>
</symbol>
</svg>